<svg width="28" height="28" viewBox="0 0 28 28" fill="none" xmlns="http://www.w3.org/2000/svg">
<path d="M18.3851 15.5391C18.2995 15.6143 18.2358 15.7114 18.2009 15.8199C18.1659 15.9284 18.161 16.0444 18.1867 16.1555L19.2429 20.7289C19.2709 20.8484 19.263 20.9734 19.2204 21.0884C19.1777 21.2034 19.1022 21.3034 19.0031 21.3757C18.9041 21.4481 18.786 21.4898 18.6634 21.4955C18.5409 21.5012 18.4194 21.4707 18.314 21.4078L14.3219 18.9859C14.2248 18.927 14.1135 18.8958 14 18.8958C13.8864 18.8958 13.7751 18.927 13.6781 18.9859L9.68591 21.4078C9.58058 21.4707 9.45907 21.5012 9.33654 21.4955C9.214 21.4898 9.09585 21.4481 8.99682 21.3757C8.89778 21.3034 8.82223 21.2034 8.77959 21.0884C8.73695 20.9734 8.72909 20.8484 8.75701 20.7289L9.81326 16.1555C9.83893 16.0444 9.83404 15.9284 9.7991 15.8199C9.76416 15.7114 9.70048 15.6143 9.61482 15.5391L6.0906 12.4649C5.99638 12.3848 5.92803 12.2785 5.8942 12.1596C5.86038 12.0407 5.86259 11.9144 5.90056 11.7967C5.93853 11.679 6.01056 11.5753 6.10752 11.4985C6.20449 11.4218 6.32203 11.3755 6.44529 11.3656L11.0906 10.9641C11.2039 10.954 11.3124 10.9131 11.4042 10.846C11.496 10.7788 11.5678 10.6878 11.6117 10.5828L13.4265 6.25782C13.475 6.146 13.5551 6.0508 13.657 5.98392C13.7589 5.91704 13.8781 5.88141 14 5.88141C14.1218 5.88141 14.2411 5.91704 14.3429 5.98392C14.4448 6.0508 14.5249 6.146 14.5734 6.25782L16.3883 10.5828C16.4322 10.6878 16.5039 10.7788 16.5958 10.846C16.6876 10.9131 16.796 10.954 16.9094 10.9641L21.5547 11.3656C21.6779 11.3755 21.7955 11.4218 21.8924 11.4985C21.9894 11.5753 22.0614 11.679 22.0994 11.7967C22.1374 11.9144 22.1396 12.0407 22.1057 12.1596C22.0719 12.2785 22.0036 12.3848 21.9094 12.4649L18.3851 15.5391Z" fill="#1C1C1C" fill-opacity="0.1"/>
<path d="M22.6875 11.6008C22.6118 11.3675 22.4692 11.1616 22.2773 11.0088C22.0855 10.856 21.8529 10.763 21.6086 10.7414L16.9688 10.3414L15.15 6.01643C15.0553 5.78949 14.8956 5.59564 14.691 5.45929C14.4863 5.32294 14.2459 5.25018 14 5.25018C13.7541 5.25018 13.5137 5.32294 13.3091 5.45929C13.1044 5.59564 12.9447 5.78949 12.85 6.01643L11.0367 10.3414L6.39142 10.7438C6.14614 10.7644 5.9124 10.857 5.71952 11.0099C5.52663 11.1628 5.38319 11.3693 5.30718 11.6034C5.23117 11.8375 5.22598 12.0889 5.29225 12.3259C5.35852 12.563 5.49331 12.7752 5.6797 12.936L9.20392 16.0157L8.14767 20.5891C8.09182 20.8284 8.10776 21.0789 8.19349 21.3092C8.27923 21.5396 8.43095 21.7395 8.6297 21.8841C8.82845 22.0286 9.0654 22.1114 9.31093 22.122C9.55647 22.1326 9.79968 22.0706 10.0102 21.9438L13.9945 19.5219L17.9875 21.9438C18.198 22.0706 18.4412 22.1326 18.6868 22.122C18.9323 22.1114 19.1692 22.0286 19.368 21.8841C19.5667 21.7395 19.7185 21.5396 19.8042 21.3092C19.8899 21.0789 19.9059 20.8284 19.85 20.5891L18.7945 16.011L22.318 12.936C22.5044 12.7746 22.6389 12.5618 22.7046 12.3243C22.7704 12.0867 22.7644 11.835 22.6875 11.6008ZM21.4985 11.9914L17.975 15.0664C17.8035 15.2156 17.676 15.4087 17.606 15.625C17.5361 15.8412 17.5265 16.0724 17.5781 16.2938L18.6367 20.875L14.6469 18.4532C14.4522 18.3346 14.2287 18.2719 14.0008 18.2719C13.7729 18.2719 13.5494 18.3346 13.3547 18.4532L9.37033 20.875L10.4219 16.2969C10.4736 16.0756 10.4639 15.8443 10.394 15.6281C10.3241 15.4118 10.1965 15.2187 10.025 15.0696L6.50002 11.9961C6.49973 11.9938 6.49973 11.9914 6.50002 11.9891L11.1438 11.5875C11.3705 11.5675 11.5874 11.486 11.7712 11.3518C11.955 11.2176 12.0987 11.0357 12.1867 10.8258L14 6.50628L15.8125 10.8258C15.9005 11.0357 16.0442 11.2176 16.228 11.3518C16.4118 11.486 16.6288 11.5675 16.8555 11.5875L21.5 11.9891C21.5 11.9891 21.5 11.9938 21.5 11.9946L21.4985 11.9914Z" fill="#1C1C1C"/>
</svg>
